<?xml version="1.0" encoding="UTF-8"?>
<svg width="188px" height="37px" viewBox="0 0 188 37" version="1.1" xmlns="http://www.w3.org/2000/svg" xmlns:xlink="http://www.w3.org/1999/xlink">
    <!-- Generator: Sketch 60.1 (88133) - https://sketch.com -->
    <title>entrepreneur-logo</title>
    <desc>Created with Sketch.</desc>
    <g id="Page-1" stroke="none" stroke-width="1" fill="none" fill-rule="evenodd">
        <g id="entrepreneur-logo" fill="#061845">
            <path d="M16.5,0 C16.41,2.09 16.2,4.18 16.11,6.26 C15.7006837,6.23810562 15.2902876,6.27174465 14.89,6.36 C13.6,6.56 12.89,6.06 13.1,4.57 C13.2181742,4.10807217 13.1830795,3.6202549 13,3.18 C12.7185481,2.79853612 12.3814639,2.46145189 12,2.18 L11.93,2.18 C6.56,2.28 7.55,1.29 7.46,6.36 L7.46,11 C7.46,11.69 7.46,12.39 8.46,12.49 C9.25,12.49 10.15,12.69 10.35,11.49 C10.3215988,10.8179161 10.8383726,10.247683 11.51,10.21 C11.6557465,10.2045562 11.8013106,10.2248674 11.94,10.27 C13.03,10.37 12.73,11.27 12.73,11.86 C12.73,12.95 12.83,14.05 12.73,15.14 C12.73,15.75 13.13,16.53 12.04,16.73 C10.95,16.93 10.75,16.43 10.45,15.51 C10.2796151,15.025285 9.9182735,14.6314227 9.45,14.42 C7.96,14.12 7.66,14.42 7.66,16.01 L7.66,23.72 C7.66,24.94 8.16,25.41 9.25,25.32 L9.55,25.32 C13.13,25.32 13.13,25.32 13.55,21.83 C13.75,20.15 14.94,20.94 15.73,20.74 C16.52,20.54 16.95,21.04 16.95,21.96 C16.95,23.35 16.95,24.75 17.05,26.14 C17.15,27.03 16.85,27.43 15.83,27.43 C11.16,27.43 6.49,27.43 1.83,27.33 C1.33313584,27.2507537 0.917008282,26.9109799 0.74,26.44 C0.55,25.71 0.66,25.02 1.64,25.02 C3.13,25.02 3.23,24.22 3.23,23.02 C3,17 3,10.94 3,5 C3,2.42 2.8,2.22 0,2.42 L0,0 L16.5,0 Z" id="Path"></path>
            <path d="M76.16,36.79 C76.16,35.79 76.26,34.79 77.65,34.6 C77.85,34.6 78.15,33.7 78.15,33.31 L78.15,12.31 C78.2574256,11.5651786 77.7439753,10.8731369 77,10.76 L76.87,10.76 C76.47,10.66 76.26,10.07 75.97,9.67 C76.288941,9.37131456 76.6578839,9.13099396 77.06,8.96 C77.76,8.76 78.66,8.87 79.35,8.66 C80.84,8.27 81.73,8.57 81.64,10.55 C82.14,10.16 82.53,9.95 82.73,9.76 C86.01,6.98 90.39,8.17 91.73,12.25 C92.6917647,15.6891783 92.7606003,19.316811 91.93,22.79 C90.93,26.87 87.75,28.56 83.58,27.46 C83.28,27.36 82.97,27.36 82.36,27.16 L82.36,34.2 C82.3976621,34.4816298 82.59124,34.7177948 82.86,34.81 C84.35,34.91 84.25,36.03 84.35,37 C81.63,36.79 78.84,36.79 76.16,36.79 Z M88.49,18.09 C88.3521099,16.3915004 88.1184045,14.7021438 87.79,13.03 C87.6964465,12.2728169 87.2857675,11.5909755 86.660205,11.154226 C86.0346425,10.7174766 85.2530458,10.566906 84.51,10.74 C82.82,10.94 82.32,11.74 82.22,13.63 L82.22,22.77 C82.22,24.66 82.43,24.86 84.22,25.06 C86.01,25.26 87.5,24.76 87.7,23.37 C88.0727995,21.6281268 88.3366445,19.8647067 88.49,18.09 Z" id="Shape"></path>
            <path d="M127.86,10.44 C129.264556,8.91405014 131.26756,8.0806834 133.34,8.16 C134.517936,8.13033999 135.657932,8.57762213 136.501414,9.40039285 C137.344895,10.2231636 137.820373,11.351691 137.82,12.53 C137.92,16.11 137.82,19.79 137.82,23.37 C137.82,24.37 137.82,25.26 139.21,25.46 C139.51,25.46 139.82,26.15 139.82,26.55 C139.82,26.95 139.21,27.05 138.92,27.34 L138.62,27.34 L134,27 C133.91,25.51 133.91,24 133.8,22.53 L133.8,13.92 C133.8,11.92 132.8,11.03 130.92,11.13 C129.53,11.23 128.92,11.83 128.92,13.22 L128.92,24 C128.813204,24.6793362 129.249876,25.32561 129.92,25.48 C130.28839,25.7346406 130.53745,26.1280845 130.61,26.57 C130.61,26.87 129.92,27.27 129.52,27.27 C127.631323,27.3699981 125.738677,27.3699981 123.85,27.27 C123.45,27.27 123.16,26.87 122.76,26.66 C123.06,26.26 123.26,25.57 123.55,25.44 C124.55,25.14 124.64,24.54 124.64,23.75 L124.64,12.53 C124.64,11.53 124.34,10.94 123.25,10.94 C122.95,10.94 122.36,10.33 122.46,10.14 C122.586727,9.68405368 122.919876,9.31388861 123.36,9.14 C124.05,8.94 124.85,8.94 125.64,8.74 C126.77,8.33 128,8.16 127.86,10.44 Z" id="Path"></path>
            <path d="M24.39,9.75 C25.8070099,9.07822729 27.3119154,8.61025891 28.86,8.36 C32.14,8.06 34.03,10.05 34.03,13.36 L34.03,22.9 C34.03,24.29 33.83,25.9 35.92,25.78 C36.12,27.17 35.62,27.57 34.43,27.57 C33.3690171,27.4700138 32.3009829,27.4700138 31.24,27.57 C30.24,27.67 29.95,27.18 29.95,26.18 L29.95,14.62 C29.95,12.24 28.86,11.14 26.87,11.34 C25.7959329,11.3391404 24.9129624,12.1867922 24.87,13.26 L24.87,24.26 C24.87,24.66 25.48,25.16 25.87,25.56 L26.77,26.78 C26.3863234,27.1124183 25.9504827,27.3793285 25.48,27.57 C23.6513662,27.670002 21.8186338,27.670002 19.99,27.57 C19.59,27.57 19.3,27.17 18.9,26.96 C19.2,26.56 19.3,25.74 19.69,25.67 C20.3571801,25.5113363 20.7917323,24.8681991 20.69,24.19 L20.69,12.43 C20.7483653,12.1235236 20.6819103,11.8064298 20.5054012,11.5491772 C20.3288922,11.2919247 20.0569498,11.1158222 19.75,11.06 L19.6,11.06 C19.2011754,10.8507325 18.8582764,10.5489814 18.6,10.18 C18.8579426,9.80814459 19.2007316,9.50306233 19.6,9.29 C20.5981251,8.97966168 21.6349603,8.81134428 22.68,8.79 C23.26,8.65 23.86,9.35 24.39,9.75 Z" id="Path"></path>
            <path d="M168,26 C166.892676,26.5856492 165.726087,27.051614 164.52,27.39 C160.34,28.09 158.05,26 157.96,21.72 L157.96,10.94 C157.834516,10.8692251 157.730775,10.7654838 157.66,10.64 C157.05,10.34 155.87,10.64 155.97,9.55 C156.07,8.25 157.19,8.94 157.76,8.75 C158.76,8.55 159.76,8.55 160.76,8.36 C161.76,8.17 162.05,8.56 162.05,9.36 C162.141245,10.4407973 162.177958,11.5255066 162.16,12.61 L162.16,21.49 C162.26,23.98 163.38,25.15 165.44,24.97 C166.007625,24.986138 166.558392,24.7760109 166.971022,24.3858882 C167.383651,23.9957655 167.624308,23.4576379 167.64,22.89 C167.644941,22.8534998 167.644941,22.8165002 167.64,22.78 C167.73,19.12 167.64,15.32 167.64,11.64 C167.64,10.85 167.14,10.64 166.42,10.42 C166.02,10.33 165.72,9.73 165.32,9.42 C165.681582,9.13681109 166.0965,8.92935238 166.54,8.81 C167.76,8.61 168.93,8.61 170.12,8.31 C171.02,8.11 171.42,8.41 171.51,9.21 C171.631975,9.83291404 171.6989,10.4653532 171.71,11.1 L171.71,23.86 C171.71,24.65 171.81,25.25 172.71,25.45 C173.113123,25.7309749 173.366929,26.1797333 173.4,26.67 C173.173898,27.0278722 172.813646,27.2800481 172.4,27.37 C171.670857,27.420018 170.939143,27.420018 170.21,27.37 C169.22,27.54 168.22,27.34 168,26 Z" id="Path"></path>
            <path d="M153.63,24.36 C154.63,25.36 154.33,26.05 153.24,26.55 C147.75,29.04 141.81,27.55 140.91,19.3 C140.590371,16.7404219 141.039417,14.1436165 142.2,11.84 C143.79,8.84 146.38,7.96 149.46,8.26 C152.25,8.56 153.64,10.45 154.46,12.93 C154.798472,14.3340916 155.032445,15.7613318 155.16,17.2 C155.25,18.29 154.86,18.89 153.57,18.79 C151.38,18.69 149.09,18.79 146.9,18.89 C145.31,18.89 145.11,19.19 145.41,20.68 C146.223333,24.56 148.51,25.9533333 152.27,24.86 C152.706586,24.6508996 153.16194,24.48349 153.63,24.36 L153.63,24.36 Z M145.36,16.8 L150.43,16.8 C150.774965,16.6805468 151.061183,16.4336836 151.23,16.11 C150.944053,14.4801976 150.508889,12.8801319 149.93,11.33 C149.557205,10.7131202 148.881319,10.3445505 148.160841,10.3652539 C147.440363,10.3859573 146.786757,10.7927308 146.45,11.43 C145.550267,13.0679583 145.170105,14.9408695 145.36,16.8 L145.36,16.8 Z" id="Shape"></path>
            <path d="M73.77,24.36 C74.77,25.45 74.38,26.05 73.37,26.55 C68.49,28.74 63,27.77 61.44,21.18 C60.6207908,18.0788831 60.9769526,14.7843864 62.44,11.93 C63.83,9.14 66.32,7.85 69.8,8.27 C72.59,8.57 74.07,10.46 74.68,12.94 C75.0375102,14.3743479 75.2419856,15.8425489 75.29,17.32 C75.39,18.32 74.89,18.81 73.8,18.81 C71.51,18.81 69.13,18.91 66.8,18.91 C65.71,18.91 65.31,19.31 65.51,20.5 C66.12,24.38 68.51,25.99 72.37,24.88 C72.8179099,24.6598358 73.2869712,24.4856131 73.77,24.36 L73.77,24.36 Z M68.28,16.91 L68.28,16.91 C69.07,16.81 69.87,16.91 70.57,16.81 C70.87,16.81 71.46,16.31 71.36,16.11 C71.185898,14.4937155 70.7502162,12.9164799 70.07,11.44 C69.07,9.75 66.89,10.15 66.19,11.94 C65.8974893,12.6421748 65.6926124,13.3777165 65.58,14.13 C65.08,16.92 65.08,16.92 67.87,16.92 L68.28,16.92 L68.28,16.91 Z" id="Shape"></path>
            <path d="M120.1,24.36 C120.89,25.36 120.8,26.05 119.6,26.55 C114.6,28.74 108.87,27.77 107.47,20.55 C106.853392,17.7334781 107.205752,14.7912697 108.47,12.2 C109.86,9.2 112.13,8.02 115.83,8.2 C118.22,8.4 120.1,9.99 121,12.97 C121.351673,14.3036524 121.556226,15.6718089 121.61,17.05 C121.71,18.14 121.31,18.74 120.02,18.74 C117.73,18.64 115.45,18.84 113.26,18.84 C112.04,18.84 111.67,19.24 111.87,20.53 C112.56,24.53 114.95,25.9 118.73,24.8 C119.160567,24.5819088 119.622964,24.4334017 120.1,24.36 L120.1,24.36 Z M111.46,16.91 L116.94,16.91 C117.24,16.91 117.84,16.41 117.74,16.21 C117.54374,14.6381399 117.133264,13.1005375 116.52,11.64 C115.998123,10.6103937 114.743074,10.1950218 113.71,10.71 C113.269606,10.9156001 112.9156,11.2696064 112.71,11.71 C112.18,13.33 112,15 111.46,16.91 Z" id="Shape"></path>
            <path d="M100.22,9.64 C101.61,9.25 103.31,8.85 104.89,8.43 C105.89,8.22 106.58,8.63 106.28,9.92 C106.130257,10.7062679 106.03006,11.5011669 105.98,12.3 C105.98,13.52 105.37,13.8 104.29,13.8 C103,13.8 102.9,13.1 102.9,12.11 C102.883521,11.8010098 102.815938,11.4968881 102.7,11.21 C100.81,11.21 100.42,11.51 100.42,13.21 L100.42,23.76 C100.42,24.76 100.62,25.26 101.64,25.56 C101.93,25.65 102.43,26.25 102.33,26.45 C102.164679,26.8378013 101.834509,27.1312856 101.43,27.25 C99.15,27.34 96.86,27.25 94.58,27.25 C94.454482,27.1378635 94.352506,27.0018955 94.28,26.85 C94.58,26.35 94.89,25.56 95.28,25.36 C95.9580604,25.0886806 96.368558,24.3949397 96.28,23.67 L96.28,12.43 C96.28,11.53 96.19,10.84 94.99,10.74 C94.598939,10.6133458 94.325218,10.2602854 94.3,9.85 C94.4177678,9.44820173 94.7068579,9.1188586 95.09,8.95 C96.1904362,8.63848518 97.3265036,8.47042788 98.47,8.45 C99,8.55 99.53,9.25 100.22,9.64 Z" id="Path"></path>
            <path d="M183,27.23 L175.44,27.23 C175.14,26.34 175.14,25.74 176.14,25.44 C176.60002,25.2010679 176.900192,24.7375114 176.93,24.22 C177.03,20.22 176.93,16.22 176.93,12.22 C176.972408,11.9156582 176.890159,11.6070844 176.701898,11.3642267 C176.513636,11.1213689 176.235306,10.9647959 175.93,10.93 L175.93,10.93 C175.532942,10.7270514 175.190097,10.4322052 174.93,10.07 C175.33,9.77 175.63,9.17 176.02,9.07 C177.021365,8.75886486 178.061613,8.5905399 179.11,8.57 C179.72,8.57 180.33,9.18 181,9.66 C182.29,9.36 183.88,8.87 185.57,8.44 C186.86,8.14 187.26,8.94 187.06,10.03 C186.97,10.64 186.86,11.12 186.76,11.72 C186.67,12.51 186.97,13.61 185.55,13.72 C184.13,13.83 183.66,13.22 183.55,12.03 C183.54063,11.7553894 183.472427,11.4859887 183.35,11.24 C181.55,11.03 181.06,11.44 181.06,13.03 L181.06,23.76 C180.940802,24.5185315 181.409828,25.2457371 182.15,25.45 C182.55,25.55 182.85,26.35 183.15,26.75 C183.194524,26.9254846 183.136521,27.1110918 183,27.23 L183,27.23 Z" id="Path"></path>
            <path d="M36.19,8.65 C38.48,9.05 39.07,7.75 39.47,6.16 C39.6141289,5.19823326 40.5072076,4.53288962 41.47,4.67 C41.5959638,4.69270126 41.7197502,4.72615703 41.84,4.77 C42.1480777,4.93751774 42.3700046,5.2285695 42.45,5.57 C42.550024,6.09528076 42.550024,6.63471924 42.45,7.16 C42.35,8.25 42.85,8.75 43.95,8.65 L45.63,8.65 C45.93,10.44 45.73,10.74 44.14,10.84 C42.92,10.84 42.55,11.34 42.55,12.53 L42.55,22.67 C42.55,24.76 42.95,24.96 45.04,25.26 C45.4657974,25.470677 45.8384278,25.7749349 46.13,26.15 C45.83,26.45 45.52,27.15 45.23,27.15 C43.8137644,27.3283681 42.3830329,27.3618747 40.96,27.25 C39.28,27.04 38.38,25.36 38.38,23.25 L38.38,12.43 C38.38,11.53 38.28,10.94 37.16,10.84 C35.7,10.74 36.49,9.64 36.19,8.65 Z" id="Path"></path>
            <path d="M48.32,27.23 C48.02,26.23 48.12,25.64 49.02,25.34 C49.4967454,25.0839797 49.798635,24.5910207 49.81,24.05 C49.91,20.05 49.81,16.13 49.81,12.22 C49.9068462,11.5626151 49.4640706,10.947157 48.81,10.83 L48.75,10.83 C48.35,10.73 48.14,10.22 47.85,9.93 C48.1079426,9.55814459 48.4507316,9.25306233 48.85,9.04 C49.8466181,8.72330423 50.8843788,8.55483658 51.93,8.54 C52.54,8.54 53.15,9.14 53.93,9.63 C55.3600059,9.16708881 56.8201055,8.80289922 58.3,8.54 C59.79,8.33 59.99,8.75 59.79,10.16 C59.7739144,10.8307594 59.7070566,11.4993377 59.59,12.16 C59.68,12.95 59.68,13.95 58.29,13.85 C56.9,13.75 56.8,13.06 56.6,12.06 C56.6,11.76 56.51,11.45 56.51,11.26 C54.62,11.17 54.12,11.56 54.12,13.26 L54.12,23.67 C54.12,24.67 54.32,25.36 55.42,25.56 C55.7851979,25.7612638 56.0142721,26.1430542 56.02,26.56 C55.8856981,26.9075196 55.5846166,27.1634389 55.22,27.24 C52.89,27.34 50.6,27.23 48.32,27.23 Z" id="Path"></path>
        </g>
    </g>
</svg>