<?xml version="1.0" encoding="UTF-8"?>
<svg width="189px" height="22px" viewBox="0 0 189 22" version="1.1" xmlns="http://www.w3.org/2000/svg" xmlns:xlink="http://www.w3.org/1999/xlink">
    <!-- Generator: Sketch 60.1 (88133) - https://sketch.com -->
    <title>huffpost-logo</title>
    <desc>Created with Sketch.</desc>
    <g id="Page-1" stroke="none" stroke-width="1" fill="none" fill-rule="evenodd">
        <g id="huffpost-logo" transform="translate(0.000000, -1.000000)" fill="#061845" fill-rule="nonzero">
            <polygon id="Path" points="24.33 22.56 31.18 22.56 34.88 1.47 28 1.47 26.65 9 20.65 9 22.05 1.47 15.19 1.47 11.5 22.56 18.36 22.56 19.74 14.67 25.74 14.67"></polygon>
            <path d="M38.77,1.44 L36.68,13.18 C36.5084081,14.0461842 36.4213328,14.9269841 36.42,15.81 C36.42,22.02 41.86,22.97 45.12,22.97 C52,23 54.92,20.69 56,14.56 L58.28,1.42 L51.42,1.42 L49.42,12.42 C48.79,15.87 48.35,17.68 45.79,17.68 C44.12,17.68 43.31,16.79 43.31,14.96 C43.3314302,14.0717504 43.4385943,13.1876465 43.63,12.32 L45.63,1.4 L38.8,1.4 L38.77,1.44 Z" id="Path"></path>
            <path d="M94.61,22.56 L101.47,22.56 L102.47,17.12 L105.71,17.12 C111.71,17.12 115.01,13.88 115.01,7.98 C115.01,3.82 112.14,1.44 107.09,1.44 L98.31,1.44 L94.61,22.56 Z M105.32,11.92 L103.32,11.92 L104.23,6.92 L106.09,6.92 C107.6,6.92 108.41,7.67 108.41,9.06 C108.41,10.81 107.24,11.88 105.3,11.88 L105.32,11.92 Z" id="Shape"></path>
            <path d="M128.36,1 C120.87,1 116.36,5.83 116.36,14 C116.36,19.64 119.91,23 125.87,23 C133.34,23 137.81,18.17 137.81,10 C137.88,4.37 134.33,1 128.36,1 Z M126.36,17.54 C124.58,17.54 123.54,16.26 123.54,14.12 C123.541729,13.3377527 123.618751,12.5574879 123.77,11.79 C124.3,9.02 125.18,6.49 127.98,6.49 C129.76,6.49 130.8,7.77 130.8,9.91 C130.798271,10.6922473 130.721249,11.4725121 130.57,12.24 C130,15 129.13,17.54 126.33,17.54 L126.36,17.54 Z" id="Shape"></path>
            <polygon id="Path" points="161.76 22.56 168.62 22.56 171.34 7.11 176.51 7.11 177.51 1.47 159.93 1.47 158.93 7.11 164.42 7.11"></polygon>
            <path d="M150.37,9.26 C148.2,8.58 147.31,8.26 147.31,7.26 C147.31,6.58 147.76,5.77 149.06,5.77 C149.971121,5.74664309 150.802302,6.28750751 151.15,7.13 L157.21,5.5 C156.51,2.5 153.95,0.99 149.53,0.99 C141.22,0.99 140.53,6.54 140.53,8.25 C140.53,11.7 142.36,13.81 146.33,14.92 C147.33,15.2 148.58,15.52 148.58,16.67 C148.58,17.58 147.9,18.16 146.72,18.16 C145.576248,18.1775569 144.539339,17.4902573 144.11,16.43 L138.11,18.06 C138.76,21.2 141.7,22.96 146.34,22.96 C149.86,22.96 155.77,22.02 155.77,15.65 C155.77,12.46 153.99,10.37 150.31,9.25 L150.37,9.26 Z" id="Path"></path>
            <polygon id="Path" points="7.66 22.56 11.37 1.47 0 1.47 0 22.56"></polygon>
            <polygon id="Path" points="180.47 1.47 176.78 22.56 188.15 22.56 188.15 1.47"></polygon>
            <polygon id="Path" points="66.5 16.34 72.27 16.34 73.21 11.03 67.44 11.03 68.09 7.11 76.16 7.11 77.16 1.44 62.21 1.44 58.53 22.56 65.4 22.56"></polygon>
            <polygon id="Path" points="84.5 16.34 90.3 16.34 91.24 11.03 85.47 11.03 86.12 7.11 94.19 7.11 95.19 1.44 80.24 1.44 76.56 22.56 83.43 22.56"></polygon>
        </g>
    </g>
</svg>