<?xml version="1.0" encoding="UTF-8"?>
<svg width="117px" height="41px" viewBox="0 0 117 41" version="1.1" xmlns="http://www.w3.org/2000/svg" xmlns:xlink="http://www.w3.org/1999/xlink">
    <!-- Generator: Sketch 60.1 (88133) - https://sketch.com -->
    <title>inc-logo</title>
    <desc>Created with Sketch.</desc>
    <g id="Page-1" stroke="none" stroke-width="1" fill="none" fill-rule="evenodd">
        <g id="inc-logo" fill="#061845">
            <path d="M89.18,40.27 C87.92,40.07 86.63,39.94 85.37,39.69 C82.106227,39.101243 79.0602781,37.6473377 76.55,35.48 C75.2507067,34.3031794 74.1528524,32.921572 73.3,31.39 L73.3,39.47 L52.35,39.47 L52.35,30.91 L56.3,30.91 L56.3,22.21 C56.4106482,21.0594872 55.9999083,19.9199351 55.1806848,19.1045851 C54.3614614,18.289235 53.2199755,17.8839004 52.07,18 C50.6429228,17.8982968 49.2339598,18.3681357 48.153541,19.3059992 C47.0731222,20.2438628 46.4099004,21.5727955 46.31,23 C46.2900064,23.2629538 46.2900064,23.5270462 46.31,23.79 L46.31,30.94 L50.39,30.94 L50.39,39.52 L29,39.52 L29,30.91 L32.83,30.91 L32.83,17.91 L29,17.91 L29,9.32 L45.83,9.32 L45.83,15.24 C46,15.08 46.17,14.92 46.32,14.75 C49.44,10.84 53.62,9.36 58.44,9.55 C60.7071243,9.54101021 62.9478761,10.0362983 65,11 C67.7602935,12.2633034 69.5795991,14.9671546 69.71,18 C69.9,20.78 69.81,23.57 69.83,26.35 L69.83,30.81 L73.2,30.81 L73,30.24 C71.3216199,25.8776341 71.7727092,20.9822059 74.22,17 C75.9863945,14.1931776 78.6782806,12.0920207 81.83,11.06 C87.62,9.06 93.49,8.59 99.34,10.85 C104.26,12.77 106.88,16.54 107.51,21.75 L107.51,22 L96,23.29 C95.87,22.35 95.79,21.43 95.59,20.53 C95.4477593,19.8996724 95.2224573,19.2910209 94.92,18.72 C94.3225972,17.5249744 93.1155409,16.7561487 91.78,16.72 C88.5,16.46 86.6,17.92 86.07,21.2 C85.6372379,23.7884595 85.6711048,26.4334695 86.17,29.01 C86.5220336,30.7828703 87.7710714,32.2449002 89.4672157,32.8694731 C91.1633599,33.4940461 93.0622825,33.1911929 94.48,32.07 C95.3751153,31.3827397 95.952604,30.3613066 96.08,29.24 C96.0929732,28.9711811 96.1264032,28.7037409 96.18,28.44 L107.71,28.44 C107.63,28.97 107.59,29.44 107.48,29.97 C106.27,35.08 102.98,38.14 98.02,39.44 C96.62,39.81 95.15,39.94 93.72,40.17 L93.1,40.27 L89.19,40.27 L89.18,40.27 Z" id="Path"></path>
            <path d="M27.53,0 L27.53,9.2 L23,9.2 C22.55,9.2 22.37,9.3 22.37,9.8 L22.37,30.31 C22.37,30.79 22.55,30.87 22.98,30.87 L27,30.87 C27.31,30.87 27.5,30.87 27.5,31.3 L27.5,39.2 C27.4884454,39.2884013 27.4683515,39.3754749 27.44,39.46 L0,39.46 L0,30.91 L5.11,30.91 L5.11,9.26 L4.44,9.26 L0,9.19 L0,0 L27.53,0 Z" id="Path"></path>
            <path d="M116.49,35.49 C116.266375,36.533147 115.749429,37.4907107 115,38.25 C113.064355,40.1410201 109.962265,40.1049662 108.071093,38.169469 C106.179921,36.2339719 106.215732,33.1318798 108.151081,31.240556 C110.08643,29.3492323 113.188524,29.3847996 115.08,31.32 C115.702346,31.9625333 116.140922,32.760259 116.35,33.63 C116.368701,33.7592524 116.409281,33.8843752 116.47,34 L116.47,35.49 L116.47,35.49 L116.49,35.49 Z" id="Path"></path>
        </g>
    </g>
</svg>